<svg
    xmlns="http://www.w3.org/2000/svg"
    viewBox="0 0 136 136"
>
    <path
        d="M70.573 1.67C33.94 1.67 4.243 31.367 4.243 68c0 36.634 29.697 66.33 66.33 66.33s66.33-29.696 66.33-66.33c0-36.633-29.697-66.33-66.33-66.33m.05 102.736c-20.117 0-36.427-16.308-36.427-36.427 0-20.118 16.31-36.427 36.427-36.427 17.055 0 31.37 11.723 35.333 27.55H89.845c-3.365-7.255-10.713-12.301-19.222-12.301-11.678 0-21.179 9.501-21.179 21.18s9.501 21.178 21.18 21.178c8.539 0 15.907-5.08 19.256-12.377h16.095c-3.939 15.864-18.269 27.624-35.352 27.624"
        fill="#2f44ad"
    />
</svg>